# xmcd CD database file
#
# Track frame offsets:
#	150
#	22682
#	41082
#	65480
#	85842
#	104927
#	122302
#	137712
#	155990
#	179755
#	204087
#	224607
#	244907
#	264390
#
# Disc length: 3915 seconds
#
# Revision: 1
# Processed by: cddbd v1.5.1PL0 Copyright (c) Steve Scherf et al.
# Submitted via: CDex 1.51
#
DISCID=ce0f490e
DTITLE=Tatsuo Kato and Masaji Watanabe - Acoustic Garden
DYEAR=2000
DGENRE=New Age
TTITLE0=A Passage Through The Air
TTITLE1=The Land Of Dreams
TTITLE2=Sail Across The Sky
TTITLE3=Speed The Dawn
TTITLE4=The Ebb And Flow
TTITLE5=Nostalgia
TTITLE6=Allow Yourself To Flow
TTITLE7=Air Stream
TTITLE8=The Blue Horizon
TTITLE9=The Cloud Sea
TTITLE10=The Silver Moonset
TTITLE11=Barcarolle
TTITLE12=Walk Through The Blue
TTITLE13=Prelude~Blue Aqua~
EXTD=YEAR: 2000
EXTT0=
EXTT1=
EXTT2=
EXTT3=
EXTT4=
EXTT5=
EXTT6=
EXTT7=
EXTT8=
EXTT9=
EXTT10=
EXTT11=
EXTT12=
EXTT13=
PLAYORDER=
